<svg width="1075" height="1075" viewBox="0 0 1075 1075" fill="none" xmlns="http://www.w3.org/2000/svg">
<rect width="1075" height="1075" rx="60" fill="#E24DCA"/>
<path d="M510.764 786.721C500.22 786.721 494.948 778.154 494.948 761.02C494.948 728.949 512.521 676.009 547.668 602.201C543.275 497.2 522.406 417.461 485.063 362.984C453.87 317.733 416.966 295.107 374.351 295.107C345.794 295.107 321.192 304.992 300.543 324.762C279.894 344.532 269.57 368.476 269.57 396.593C269.57 410.212 272.206 424.051 277.478 438.11C295.93 482.483 322.29 514.334 356.558 533.665C359.194 534.983 359.853 536.96 358.535 539.596C356.338 541.793 354.361 542.232 352.604 540.914C307.353 516.311 275.721 482.043 257.708 438.11C253.315 426.687 250.02 415.704 247.823 405.16C245.626 394.177 244.528 383.413 244.528 372.869C244.528 335.965 257.049 305.651 282.091 281.927C305.815 258.642 335.909 247 372.374 247C433.002 247 481.988 278.632 519.331 341.896C552.281 397.691 571.392 466.886 576.664 549.481C594.677 519.606 613.129 491.928 632.02 466.447C651.351 440.526 671.56 416.802 692.648 395.275C741.853 344.752 790.619 311.582 838.946 295.766C842.461 294.448 846.415 293.35 850.808 292.471C855.641 291.592 860.913 290.714 866.624 289.835C865.745 288.956 872.555 287.858 887.053 286.54C889.25 286.101 891.446 285.881 893.643 285.881C896.279 285.881 898.476 285.881 900.233 285.881C938.455 285.881 957.566 300.379 957.566 329.375C957.566 339.919 954.271 349.804 947.681 359.03C940.212 369.135 930.767 374.187 919.344 374.187C909.679 374.187 902.21 371.112 896.938 364.961C891.227 359.25 888.371 352.44 888.371 344.532C888.371 323.444 898.695 312.9 919.344 312.9C929.449 312.9 936.698 316.854 941.091 324.762C939.334 312.461 928.57 305.212 908.8 303.015C881.122 300.379 851.467 324.762 819.835 376.164C792.596 420.976 768.653 477.211 748.004 544.868C728.234 609.889 718.349 663.708 718.349 706.323C718.349 743.227 726.696 761.679 743.391 761.679C755.253 761.679 769.751 750.696 786.885 728.729C803.58 707.641 823.35 673.373 846.195 625.925C847.952 621.532 850.149 618.896 852.785 618.017H853.444C855.201 618.017 856.08 619.555 856.08 622.63C856.08 626.145 855.201 629.659 853.444 633.174C829.281 682.379 814.343 711.156 808.632 719.503C786.665 754.21 764.918 772.882 743.391 775.518C742.073 775.518 740.755 775.518 739.437 775.518C738.119 775.957 736.801 776.177 735.483 776.177C719.667 776.177 704.949 770.466 691.33 759.043C671.999 741.909 662.334 715.769 662.334 680.622C662.334 638.885 676.612 586.824 705.169 524.439C728.454 474.794 756.132 427.346 788.203 382.095C815.002 344.312 841.362 317.074 867.283 300.379C818.956 313.998 766.456 349.804 709.782 407.796C661.895 457.001 617.742 514.993 577.323 581.772C578.202 671.835 561.946 737.735 528.557 779.472C524.603 784.305 518.672 786.721 510.764 786.721ZM174.015 828.238C155.563 828.238 141.285 822.966 131.18 812.422C122.393 803.635 118 792.432 118 778.813C118 766.512 121.954 755.748 129.862 746.522C137.331 737.735 147.216 733.342 159.517 733.342C167.864 733.342 175.113 736.417 181.264 742.568C186.097 747.84 188.513 754.43 188.513 762.338C188.513 772.882 184.559 781.449 176.651 788.039C169.622 794.629 161.714 797.924 152.927 797.924C142.383 797.924 134.255 793.75 128.544 785.403C129.423 792.432 133.377 798.363 140.406 803.196C147.875 808.029 156.222 810.445 165.448 810.445C169.841 810.445 174.235 809.786 178.628 808.468C225.637 795.288 275.062 750.256 326.903 673.373C352.824 634.712 376.987 591.657 399.393 544.209C422.238 496.322 443.107 444.041 461.998 387.367C464.634 379.459 467.05 375.505 469.247 375.505C471.444 375.505 472.762 377.043 473.201 380.118C473.64 383.193 473.64 386.049 473.201 388.685C460.46 437.89 447.939 481.384 435.638 519.167C423.776 556.51 412.134 588.142 400.711 614.063C347.552 734.001 283.409 803.855 208.283 823.625C196.421 826.7 184.998 828.238 174.015 828.238Z" fill="white"/>
</svg>
