<svg width="2020" height="582" viewBox="0 0 2020 582" fill="none" xmlns="http://www.w3.org/2000/svg">
<path d="M392.956 540.088C382.412 540.088 377.14 531.521 377.14 514.387C377.14 482.316 394.713 429.376 429.86 355.568C425.467 250.567 404.598 170.828 367.255 116.351C336.062 71.0996 299.158 48.474 256.543 48.474C227.986 48.474 203.384 58.359 182.735 78.129C162.086 97.899 151.762 121.843 151.762 149.96C151.762 163.579 154.398 177.418 159.67 191.477C178.122 235.85 204.482 267.701 238.75 287.032C241.386 288.35 242.045 290.327 240.727 292.963C238.53 295.16 236.553 295.599 234.796 294.281C189.545 269.678 157.913 235.41 139.9 191.477C135.507 180.054 132.212 169.071 130.015 158.527C127.818 147.544 126.72 136.78 126.72 126.236C126.72 89.332 139.241 59.018 164.283 35.294C188.007 12.0093 218.101 0.36696 254.566 0.36696C315.194 0.36696 364.18 31.999 401.523 95.263C434.473 151.058 453.584 220.253 458.856 302.848C476.869 272.973 495.321 245.295 514.212 219.814C533.543 193.893 553.752 170.169 574.84 148.642C624.045 98.1186 672.811 64.949 721.138 49.133C724.653 47.815 728.607 46.7166 733 45.838C737.833 44.9593 743.105 44.0806 748.816 43.202C747.937 42.3233 754.747 41.225 769.245 39.907C771.442 39.4676 773.638 39.248 775.835 39.248C778.471 39.248 780.668 39.248 782.425 39.248C820.647 39.248 839.758 53.746 839.758 82.742C839.758 93.286 836.463 103.171 829.873 112.397C822.404 122.502 812.959 127.554 801.536 127.554C791.871 127.554 784.402 124.479 779.13 118.328C773.419 112.617 770.563 105.807 770.563 97.899C770.563 76.811 780.887 66.267 801.536 66.267C811.641 66.267 818.89 70.221 823.283 78.129C821.526 65.8276 810.762 58.5787 790.992 56.382C763.314 53.746 733.659 78.129 702.027 129.531C674.788 174.343 650.845 230.578 630.196 298.235C610.426 363.256 600.541 417.075 600.541 459.69C600.541 496.594 608.888 515.046 625.583 515.046C637.445 515.046 651.943 504.063 669.077 482.096C685.772 461.008 705.542 426.74 728.387 379.292C730.144 374.899 732.341 372.263 734.977 371.384H735.636C737.393 371.384 738.272 372.922 738.272 375.997C738.272 379.512 737.393 383.026 735.636 386.541C711.473 435.746 696.535 464.523 690.824 472.87C668.857 507.577 647.11 526.249 625.583 528.885C624.265 528.885 622.947 528.885 621.629 528.885C620.311 529.324 618.993 529.544 617.675 529.544C601.859 529.544 587.141 523.833 573.522 512.41C554.191 495.276 544.526 469.136 544.526 433.989C544.526 392.252 558.804 340.191 587.361 277.806C610.646 228.161 638.324 180.713 670.395 135.462C697.194 97.6793 723.554 70.4406 749.475 53.746C701.148 67.3653 648.648 103.171 591.974 161.163C544.087 210.368 499.934 268.36 459.515 335.139C460.394 425.202 444.138 491.102 410.749 532.839C406.795 537.672 400.864 540.088 392.956 540.088ZM56.207 581.605C37.755 581.605 23.4767 576.333 13.372 565.789C4.58533 557.002 0.191998 545.799 0.191998 532.18C0.191998 519.879 4.146 509.115 12.054 499.889C19.5227 491.102 29.4077 486.709 41.709 486.709C50.0563 486.709 57.3053 489.784 63.456 495.935C68.2887 501.207 70.705 507.797 70.705 515.705C70.705 526.249 66.751 534.816 58.843 541.406C51.8137 547.996 43.9057 551.291 35.119 551.291C24.575 551.291 16.4473 547.117 10.736 538.77C11.6147 545.799 15.5687 551.73 22.598 556.563C30.0667 561.396 38.414 563.812 47.64 563.812C52.0333 563.812 56.4267 563.153 60.82 561.835C107.829 548.655 157.254 503.623 209.095 426.74C235.016 388.079 259.179 345.024 281.585 297.576C304.43 249.689 325.299 197.408 344.19 140.734C346.826 132.826 349.242 128.872 351.439 128.872C353.636 128.872 354.954 130.41 355.393 133.485C355.832 136.56 355.832 139.416 355.393 142.052C342.652 191.257 330.131 234.751 317.83 272.534C305.968 309.877 294.326 341.509 282.903 367.43C229.744 487.368 165.601 557.222 90.475 576.992C78.613 580.067 67.1903 581.605 56.207 581.605Z" fill="#E24DCA"/>
<path d="M761.316 521.636C744.182 521.636 729.465 516.144 717.163 505.161C710.573 499.01 705.741 491.981 702.665 484.073C700.029 475.726 698.711 466.28 698.711 455.736C698.711 415.317 715.406 375.118 748.795 335.139C776.913 301.31 806.128 284.396 836.442 284.396C846.547 284.396 855.114 287.032 862.143 292.304C869.612 298.455 873.346 306.363 873.346 316.028C873.346 340.191 857.311 364.355 825.239 388.518C815.135 395.987 801.735 402.577 785.04 408.288C766.588 414.439 753.189 417.514 744.841 417.514C738.691 432.451 735.615 448.267 735.615 464.962C735.615 493.519 746.159 507.797 767.247 507.797C794.925 507.797 820.846 489.784 845.009 453.759L847.645 449.805L858.848 454.418L856.871 458.372C845.888 480.339 832.049 496.374 815.354 506.479C798.66 516.584 780.647 521.636 761.316 521.636ZM748.795 406.311C756.264 406.311 766.588 403.895 779.768 399.062C787.237 395.987 794.266 392.692 800.856 389.177C807.886 385.662 814.036 381.708 819.308 377.315C843.472 357.106 855.553 335.798 855.553 313.392C855.553 303.727 852.039 298.894 845.009 298.894C832.708 298.894 814.036 314.051 788.994 344.365C776.254 359.742 762.854 380.39 748.795 406.311ZM979.214 263.967C964.276 263.967 956.808 256.718 956.808 242.22C956.808 227.722 963.837 220.473 977.896 220.473C992.833 220.473 1000.3 227.722 1000.3 242.22C1000.3 256.718 993.272 263.967 979.214 263.967ZM889.59 519C876.849 519 870.479 512.63 870.479 499.889C870.479 491.981 873.115 481.217 878.387 467.598C889.809 439.481 900.573 413.56 910.678 389.836C920.782 366.112 930.228 344.585 939.015 325.254C940.333 323.057 940.992 320.641 940.992 318.005C940.992 311.854 938.136 305.264 932.425 298.235L968.67 297.576C980.971 297.576 987.122 300.651 987.122 306.802C987.122 308.559 986.682 310.536 985.804 312.733C984.925 314.49 983.827 317.126 982.509 320.641L921.881 461.008C915.73 475.506 912.655 487.807 912.655 497.912C912.655 508.456 915.95 515.485 922.54 519H889.59ZM1146.52 520.318C1136.85 520.318 1128.94 517.462 1122.79 511.751C1114.01 504.282 1109.61 491.761 1109.61 474.188C1109.61 462.765 1111.59 449.805 1115.54 435.307C1100.61 460.349 1085.01 480.778 1068.76 496.594C1052.06 511.971 1037.12 519.659 1023.94 519.659C1012.52 519.659 1003.51 514.607 996.924 504.502C989.895 494.837 986.38 481.437 986.38 464.303C986.38 422.566 1005.05 379.512 1042.4 335.139C1048.55 327.67 1055.58 320.861 1063.48 314.71C1071.39 308.559 1079.96 303.068 1089.18 298.235C1108.08 288.57 1126.31 283.737 1143.88 283.737C1165.41 283.737 1182.54 290.766 1195.28 304.825C1198.36 307.9 1199.9 311.415 1199.9 315.369C1199.9 322.838 1195.94 325.693 1188.03 323.936C1183.64 308.12 1173.32 300.212 1157.06 300.212C1138.61 300.212 1116.86 313.172 1091.82 339.093C1083.03 348.758 1074.69 358.863 1066.78 369.407C1058.87 379.512 1051.4 390.275 1044.37 401.698C1025.48 433.33 1016.04 459.031 1016.04 478.801C1016.04 493.738 1021.75 501.207 1033.17 501.207C1045.91 501.207 1060.63 491.542 1077.32 472.211C1086.55 461.667 1095.99 448.707 1105.66 433.33C1115.32 417.953 1125.43 400.16 1135.97 379.951C1140.37 371.604 1144.32 364.794 1147.84 359.522C1151.35 354.25 1154.21 350.296 1156.4 347.66C1163.43 340.631 1171.78 337.336 1181.44 337.775L1194.62 339.752C1200.34 341.07 1205.17 341.29 1209.12 340.411C1205.17 344.365 1200.34 350.735 1194.62 359.522C1189.35 367.869 1183.2 378.853 1176.17 392.472C1168.7 406.97 1162.55 420.15 1157.72 432.012C1152.89 443.874 1149.59 454.418 1147.84 463.644C1146.96 468.037 1146.3 472.211 1145.86 476.165C1145.42 479.68 1145.2 482.975 1145.2 486.05C1145.2 497.473 1148.27 503.184 1154.43 503.184C1163.21 503.184 1175.29 493.519 1190.67 474.188L1193.31 470.893L1202.53 476.824L1199.9 480.778C1181.88 507.138 1164.09 520.318 1146.52 520.318ZM1281.87 519C1253.32 519 1239.04 503.404 1239.04 472.211C1239.04 466.06 1239.48 459.69 1240.36 453.1C1241.68 446.51 1243.65 439.92 1246.29 433.33C1269.57 371.823 1289.34 321.739 1305.6 283.078H1262.76L1270.67 268.58H1311.53L1327.35 222.45C1333.06 206.195 1337.89 196.529 1341.84 193.454C1344.92 191.257 1351.95 190.159 1362.93 190.159L1391.27 190.818C1382.48 198.287 1375.89 207.293 1371.5 217.837L1349.75 268.58H1399.84L1391.93 283.078H1343.82C1340.75 290.107 1337.67 297.137 1334.59 304.166C1331.96 311.195 1328.88 318.444 1325.37 325.913C1316.14 346.122 1308.23 365.233 1301.64 383.246C1293.74 403.895 1287.37 421.688 1282.53 436.625C1278.14 451.562 1275.5 463.424 1274.63 472.211C1272.87 493.738 1278.58 504.502 1291.76 504.502C1304.06 504.502 1319 491.322 1336.57 464.962L1344.48 474.188C1323.39 504.063 1302.52 519 1281.87 519ZM1526.86 520.318C1517.19 520.318 1509.28 517.462 1503.13 511.751C1494.35 504.282 1489.95 491.761 1489.95 474.188C1489.95 462.765 1491.93 449.805 1495.89 435.307C1480.95 460.349 1465.35 480.778 1449.1 496.594C1432.4 511.971 1417.46 519.659 1404.28 519.659C1392.86 519.659 1383.86 514.607 1377.27 504.502C1370.24 494.837 1366.72 481.437 1366.72 464.303C1366.72 422.566 1385.39 379.512 1422.74 335.139C1428.89 327.67 1435.92 320.861 1443.82 314.71C1451.73 308.559 1460.3 303.068 1469.53 298.235C1488.42 288.57 1506.65 283.737 1524.22 283.737C1545.75 283.737 1562.88 290.766 1575.62 304.825C1578.7 307.9 1580.24 311.415 1580.24 315.369C1580.24 322.838 1576.28 325.693 1568.38 323.936C1563.98 308.12 1553.66 300.212 1537.4 300.212C1518.95 300.212 1497.2 313.172 1472.16 339.093C1463.37 348.758 1455.03 358.863 1447.12 369.407C1439.21 379.512 1431.74 390.275 1424.71 401.698C1405.82 433.33 1396.38 459.031 1396.38 478.801C1396.38 493.738 1402.09 501.207 1413.51 501.207C1426.25 501.207 1440.97 491.542 1457.66 472.211C1466.89 461.667 1476.33 448.707 1486 433.33C1495.67 417.953 1505.77 400.16 1516.31 379.951C1520.71 371.604 1524.66 364.794 1528.18 359.522C1531.69 354.25 1534.55 350.296 1536.74 347.66C1543.77 340.631 1552.12 337.336 1561.79 337.775L1574.97 339.752C1580.68 341.07 1585.51 341.29 1589.46 340.411C1585.51 344.365 1580.68 350.735 1574.97 359.522C1569.69 367.869 1563.54 378.853 1556.51 392.472C1549.04 406.97 1542.89 420.15 1538.06 432.012C1533.23 443.874 1529.93 454.418 1528.18 463.644C1527.3 468.037 1526.64 472.211 1526.2 476.165C1525.76 479.68 1525.54 482.975 1525.54 486.05C1525.54 497.473 1528.62 503.184 1534.77 503.184C1543.55 503.184 1555.63 493.519 1571.01 474.188L1573.65 470.893L1582.87 476.824L1580.24 480.778C1562.22 507.138 1544.43 520.318 1526.86 520.318ZM1589.73 523.613C1598.07 502.525 1609.06 476.165 1622.68 444.533C1636.73 412.901 1652.55 376.876 1670.12 336.457C1673.64 327.67 1676.93 320.641 1680.01 315.369C1683.52 310.097 1686.6 305.923 1689.23 302.848C1694.95 296.258 1702.63 293.622 1712.3 294.94L1726.14 296.917C1729.21 297.356 1731.85 297.796 1734.05 298.235C1736.68 298.235 1738.88 298.015 1740.64 297.576C1731.85 301.969 1721.53 314.49 1709.66 335.139C1698.24 355.348 1685.5 383.026 1671.44 418.173C1676.27 412.022 1682.43 403.895 1689.89 393.79C1697.36 383.246 1706.81 371.164 1718.23 357.545C1730.97 342.608 1744.15 328.769 1757.77 316.028C1771.39 303.287 1784.57 296.917 1797.31 296.917C1807.42 296.917 1814.66 300.212 1819.06 306.802C1823.45 313.392 1825.65 320.861 1825.65 329.208C1825.65 339.313 1821.69 348.319 1813.79 356.227C1805.88 364.135 1798.19 368.089 1790.72 368.089C1787.65 368.089 1784.35 367.43 1780.84 366.112C1777.76 364.794 1776.22 362.817 1776.22 360.181C1776.22 357.984 1776.66 356.007 1777.54 354.25C1778.42 352.053 1778.86 349.637 1778.86 347.001C1778.86 340.411 1775.78 337.116 1769.63 337.116C1767.44 337.116 1764.36 337.775 1760.41 339.093C1756.89 339.972 1752.06 343.486 1745.91 349.637C1733.61 361.06 1720.21 374.899 1705.71 391.154C1691.65 406.97 1678.25 424.763 1665.51 444.533C1653.21 464.303 1643.1 486.05 1635.2 509.774C1633 516.364 1626.41 519.879 1615.43 520.318C1600.49 521.197 1591.92 522.295 1589.73 523.613ZM1957.4 520.318C1947.73 520.318 1939.82 517.462 1933.67 511.751C1924.89 504.282 1920.49 491.761 1920.49 474.188C1920.49 462.765 1922.47 449.805 1926.42 435.307C1911.49 460.349 1895.89 480.778 1879.63 496.594C1862.94 511.971 1848 519.659 1834.82 519.659C1823.4 519.659 1814.39 514.607 1807.8 504.502C1800.77 494.837 1797.26 481.437 1797.26 464.303C1797.26 422.566 1815.93 379.512 1853.27 335.139C1859.42 327.67 1866.45 320.861 1874.36 314.71C1882.27 308.559 1890.84 303.068 1900.06 298.235C1918.95 288.57 1937.19 283.737 1954.76 283.737C1976.29 283.737 1993.42 290.766 2006.16 304.825C2009.24 307.9 2010.78 311.415 2010.78 315.369C2010.78 322.838 2006.82 325.693 1998.91 323.936C1994.52 308.12 1984.2 300.212 1967.94 300.212C1949.49 300.212 1927.74 313.172 1902.7 339.093C1893.91 348.758 1885.57 358.863 1877.66 369.407C1869.75 379.512 1862.28 390.275 1855.25 401.698C1836.36 433.33 1826.91 459.031 1826.91 478.801C1826.91 493.738 1832.63 501.207 1844.05 501.207C1856.79 501.207 1871.51 491.542 1888.2 472.211C1897.43 461.667 1906.87 448.707 1916.54 433.33C1926.2 417.953 1936.31 400.16 1946.85 379.951C1951.25 371.604 1955.2 364.794 1958.71 359.522C1962.23 354.25 1965.08 350.296 1967.28 347.66C1974.31 340.631 1982.66 337.336 1992.32 337.775L2005.5 339.752C2011.21 341.07 2016.05 341.29 2020 340.411C2016.05 344.365 2011.21 350.735 2005.5 359.522C2000.23 367.869 1994.08 378.853 1987.05 392.472C1979.58 406.97 1973.43 420.15 1968.6 432.012C1963.77 443.874 1960.47 454.418 1958.71 463.644C1957.84 468.037 1957.18 472.211 1956.74 476.165C1956.3 479.68 1956.08 482.975 1956.08 486.05C1956.08 497.473 1959.15 503.184 1965.3 503.184C1974.09 503.184 1986.17 493.519 2001.55 474.188L2004.19 470.893L2013.41 476.824L2010.78 480.778C1992.76 507.138 1974.97 520.318 1957.4 520.318Z" fill="#FF8AED"/>
</svg>
